<?xml version="1.0"?>
<svg xmlns="http://www.w3.org/2000/svg" xmlns:xlink="http://www.w3.org/1999/xlink" xmlns:svgjs="http://svgjs.com/svgjs" version="1.1" width="512" height="512" x="0" y="0" viewBox="0 0 462 462" style="enable-background:new 0 0 512 512" xml:space="preserve" class=""><g><path xmlns="http://www.w3.org/2000/svg" d="m181.5 0h-165c-9.12 0-16.5 7.38-16.5 16.5v165c0 9.12 7.38 16.5 16.5 16.5h165c9.12 0 16.5-7.38 16.5-16.5v-49.5-115.5c0-9.12-7.38-16.5-16.5-16.5zm-16.5 165h-132v-132h132z" fill="#555555" data-original="#000000" style="" class=""/><path xmlns="http://www.w3.org/2000/svg" d="m181.5 264h-165c-9.12 0-16.5 7.38-16.5 16.5v165c0 9.12 7.38 16.5 16.5 16.5h165c9.12 0 16.5-7.38 16.5-16.5v-165c0-9.12-7.38-16.5-16.5-16.5zm-16.5 165h-132v-132h132z" fill="#555555" data-original="#000000" style="" class=""/><path xmlns="http://www.w3.org/2000/svg" d="m445.5 264h-115.5-49.5c-9.12 0-16.5 7.38-16.5 16.5v165c0 9.12 7.38 16.5 16.5 16.5h165c9.12 0 16.5-7.38 16.5-16.5v-165c0-9.12-7.38-16.5-16.5-16.5zm-16.5 165h-132v-132h132z" fill="#555555" data-original="#000000" style="" class=""/><path xmlns="http://www.w3.org/2000/svg" d="m457.166 143.666c6.445-6.445 6.445-16.887 0-23.332l-115.5-115.5c-6.445-6.445-16.887-6.445-23.332 0l-115.5 115.5c-3.223 3.223-4.834 7.444-4.834 11.666s1.611 8.443 4.834 11.666l115.5 115.5c3.223 3.223 7.444 4.834 11.666 4.834s8.443-1.611 11.666-4.834c0 0 115.5-115.5 115.5-115.5zm-219.334-11.666 92.168-92.168 92.168 92.168-92.168 92.168s-92.168-92.168-92.168-92.168z" fill="#555555" data-original="#000000" style="" class=""/></g></svg>
