<svg id="SvgjsSvg1016" width="288" height="288" xmlns="http://www.w3.org/2000/svg" version="1.1" xmlns:xlink="http://www.w3.org/1999/xlink" xmlns:svgjs="http://svgjs.com/svgjs"><defs id="SvgjsDefs1017"></defs><g id="SvgjsG1018"><svg xmlns="http://www.w3.org/2000/svg" width="288" height="288" enable-background="new 0 0 512 512" viewBox="0 0 24 24"><path xmlns="http://www.w3.org/2000/svg" fill="#ffffff" d="m21 24h-18c-1.654 0-3-1.346-3-3v-4c0-.552.448-1 1-1s1 .448 1 1v4c0 .551.449 1 1 1h18c.551 0 1-.449 1-1v-4c0-.552.448-1 1-1s1 .448 1 1v4c0 1.654-1.346 3-3 3z" data-original="#000000" class="color555 svgShape"></path><path xmlns="http://www.w3.org/2000/svg" fill="#ffffff" d="m16.707 12.707-4 4c-.391.391-1.023.391-1.414 0l-4-4c-.286-.286-.372-.716-.217-1.09.155-.373.52-.617.924-.617h3v-10c0-.552.448-1 1-1s1 .448 1 1v10h3c.404 0 .769.244.924.617.155.374.069.804-.217 1.09z" data-original="#000000" class="color555 svgShape"></path></svg></g></svg>