<svg id="SvgjsSvg1034" width="288" height="288" xmlns="http://www.w3.org/2000/svg" version="1.1" xmlns:xlink="http://www.w3.org/1999/xlink" xmlns:svgjs="http://svgjs.com/svgjs"><defs id="SvgjsDefs1035"></defs><g id="SvgjsG1036"><svg xmlns="http://www.w3.org/2000/svg" width="288" height="288" enable-background="new 0 0 512 512" viewBox="0 0 512 512"><g xmlns="http://www.w3.org/2000/svg" fill="#555555" class="color000 svgShape"><path fill="#ffffff" d="M256 128c35.346 0 64-28.654 64-64 0-35.346-28.654-64-64-64-35.346 0-64 28.654-64 64C192 99.346 220.654 128 256 128zM256 32c17.673 0 32 14.327 32 32s-14.327 32-32 32c-17.673 0-32-14.327-32-32S238.327 32 256 32zM256 192c-35.346 0-64 28.654-64 64 0 35.346 28.654 64 64 64 35.346 0 64-28.654 64-64C320 220.654 291.346 192 256 192zM256 288c-17.673 0-32-14.327-32-32s14.327-32 32-32c17.673 0 32 14.327 32 32S273.673 288 256 288zM256 384c-35.346 0-64 28.654-64 64 0 35.346 28.654 64 64 64 35.346 0 64-28.654 64-64C320 412.654 291.346 384 256 384zM256 480c-17.673 0-32-14.327-32-32 0-17.673 14.327-32 32-32 17.673 0 32 14.327 32 32C288 465.673 273.673 480 256 480z" data-original="#000000" class="color555 svgShape"></path></g></svg></g></svg>