<svg id="SvgjsSvg1045" width="288" height="288" xmlns="http://www.w3.org/2000/svg" version="1.1" xmlns:xlink="http://www.w3.org/1999/xlink" xmlns:svgjs="http://svgjs.com/svgjs"><defs id="SvgjsDefs1046"></defs><g id="SvgjsG1047"><svg xmlns="http://www.w3.org/2000/svg" width="288" height="288" enable-background="new 0 0 512 512" viewBox="0 0 512 512"><path xmlns="http://www.w3.org/2000/svg" fill="#ffffff" d="M196.5 406.122c-11.046 0-20 8.954-20 20V492c0 11.046 8.954 20 20 20s20-8.954 20-20v-65.878C216.5 415.076 207.546 406.122 196.5 406.122zM236.5 326h-20V20c0-11.046-8.954-20-20-20s-20 8.954-20 20v306h-20c-11.046 0-20 8.954-20 20 0 11.046 8.954 20 20 20h80c11.046 0 20-8.954 20-20C256.5 334.954 247.546 326 236.5 326zM60.5 144.122c-11.046 0-20 8.954-20 20V492c0 11.046 8.954 20 20 20s20-8.954 20-20V164.122C80.5 153.076 71.546 144.122 60.5 144.122zM100.5 64.244h-20V20c0-11.046-8.954-20-20-20s-20 8.954-20 20v44.244h-20c-11.046 0-20 8.954-20 20 0 11.046 8.954 20 20 20h80c11.046 0 20-8.954 20-20C120.5 73.198 111.546 64.244 100.5 64.244zM451.5 171.168c-11.046 0-20 8.954-20 20V492c0 11.046 8.954 20 20 20 11.046 0 20-8.954 20-20V191.168C471.5 180.122 462.546 171.168 451.5 171.168zM491.5 91.122h-20V20c0-11.046-8.954-20-20-20-11.046 0-20 8.954-20 20v71.122h-20c-11.046 0-20 8.954-20 20 0 11.046 8.954 20 20 20h80c11.046 0 20-8.954 20-20S502.546 91.122 491.5 91.122zM321.5 318.122c-11.046 0-20 8.954-20 20V492c0 11.046 8.954 20 20 20 11.046 0 20-8.954 20-20V338.122C341.5 327.076 332.546 318.122 321.5 318.122zM361.5 238.244h-20V20c0-11.046-8.954-20-20-20-11.046 0-20 8.954-20 20v218.244h-20c-11.046 0-20 8.954-20 20s8.954 20 20 20h80c11.046 0 20-8.954 20-20C381.5 247.198 372.546 238.244 361.5 238.244z" data-original="#000000" class="color555 svgShape"></path></svg></g></svg>