<svg id="SvgjsSvg1001" width="288" height="288" xmlns="http://www.w3.org/2000/svg" version="1.1" xmlns:xlink="http://www.w3.org/1999/xlink" xmlns:svgjs="http://svgjs.com/svgjs"><defs id="SvgjsDefs1002"></defs><g id="SvgjsG1008" transform="matrix(1,0,0,1,0,0)"><svg xmlns="http://www.w3.org/2000/svg" width="288" height="288" enable-background="new 0 0 512 512" viewBox="0 0 462 462"><path xmlns="http://www.w3.org/2000/svg" fill="#ffffff" d="M181.5 0h-165c-9.12 0-16.5 7.38-16.5 16.5v165c0 9.12 7.38 16.5 16.5 16.5h165c9.12 0 16.5-7.38 16.5-16.5v-49.5-115.5c0-9.12-7.38-16.5-16.5-16.5zm-16.5 165h-132v-132h132zM181.5 264h-165c-9.12 0-16.5 7.38-16.5 16.5v165c0 9.12 7.38 16.5 16.5 16.5h165c9.12 0 16.5-7.38 16.5-16.5v-165c0-9.12-7.38-16.5-16.5-16.5zm-16.5 165h-132v-132h132zM445.5 264h-115.5-49.5c-9.12 0-16.5 7.38-16.5 16.5v165c0 9.12 7.38 16.5 16.5 16.5h165c9.12 0 16.5-7.38 16.5-16.5v-165c0-9.12-7.38-16.5-16.5-16.5zm-16.5 165h-132v-132h132zM457.166 143.666c6.445-6.445 6.445-16.887 0-23.332l-115.5-115.5c-6.445-6.445-16.887-6.445-23.332 0l-115.5 115.5c-3.223 3.223-4.834 7.444-4.834 11.666s1.611 8.443 4.834 11.666l115.5 115.5c3.223 3.223 7.444 4.834 11.666 4.834s8.443-1.611 11.666-4.834c0 0 115.5-115.5 115.5-115.5zm-219.334-11.666l92.168-92.168 92.168 92.168-92.168 92.168s-92.168-92.168-92.168-92.168z" data-original="#000000" class="color555 svgShape"></path></svg></g></svg>